<svg width="1200" height="800" viewBox="0 0 1200 800" fill="none" xmlns="http://www.w3.org/2000/svg">
  <rect width="1200" height="800" rx="40" fill="#0F172A"/>
  <rect x="70" y="120" width="1060" height="560" rx="28" fill="#111827" stroke="#4B5563" stroke-width="6"/>
  <path d="M240 470H960" stroke="#F59E0B" stroke-width="10" stroke-linecap="round"/>
  <path d="M274 470H352L412 332H706L766 470H840C926 470 986 410 986 324V306C986 252 944 210 890 210H834L760 290H384L330 206H244C192 206 150 248 150 300V338C150 396 200 470 274 470Z" fill="#F8FAFC"/>
  <circle cx="346" cy="504" r="96" fill="#1F2937" stroke="#94A3B8" stroke-width="8"/>
  <circle cx="346" cy="504" r="40" fill="#E2E8F0"/>
  <circle cx="834" cy="504" r="96" fill="#1F2937" stroke="#94A3B8" stroke-width="8"/>
  <circle cx="834" cy="504" r="40" fill="#E2E8F0"/>
  <rect x="260" y="220" width="140" height="64" rx="14" fill="#F59E0B"/>
  <text x="600" y="690" text-anchor="middle" fill="#E2E8F0" font-size="66" font-family="Arial, sans-serif" font-weight="700">STICKSHIFT MARKETPLACE</text>
</svg>
